<svg width="119" height="38" viewBox="0 0 119 38" fill="none" xmlns="http://www.w3.org/2000/svg">
<rect width="119" height="37.9783" rx="12.1116" fill="#4282FF"/>
<path d="M19.9808 26.8682H14.3479L14.3479 10.9781H20.0273C21.6256 10.9781 23.0015 11.2962 24.155 11.9325C25.3085 12.5635 26.1956 13.4713 26.8163 14.6558C27.4422 15.8403 27.7551 17.2576 27.7551 18.9077C27.7551 20.5629 27.4422 21.9853 26.8163 23.175C26.1956 24.3647 25.3033 25.2777 24.1395 25.9139C22.9809 26.5501 21.5946 26.8682 19.9808 26.8682ZM17.7074 23.9897H19.8411C20.8342 23.9897 21.6696 23.8138 22.3472 23.4621C23.03 23.1052 23.5421 22.5543 23.8835 21.8095C24.23 21.0594 24.4033 20.0922 24.4033 18.9077C24.4033 17.7335 24.23 16.774 23.8835 16.0291C23.5421 15.2843 23.0326 14.736 22.355 14.3843C21.6774 14.0325 20.842 13.8567 19.8489 13.8567H17.7074V23.9897Z" fill="white"/>
<path d="M52.8965 17.6119V20.2344H31.0476V17.6119H52.8965Z" fill="white"/>
<path d="M56.4624 26.8682V10.9781H62.8247C63.9937 10.9781 64.9687 11.1514 65.7498 11.498C66.5308 11.8445 67.1179 12.3256 67.511 12.9411C67.9041 13.5515 68.1007 14.2549 68.1007 15.0515C68.1007 15.6722 67.9765 16.2179 67.7283 16.6886C67.48 17.1542 67.1386 17.5369 66.7041 17.8369C66.2748 18.1318 65.7834 18.3413 65.2299 18.4654V18.6206C65.8351 18.6464 66.4015 18.8171 66.9291 19.1327C67.4619 19.4482 67.8938 19.8904 68.2248 20.4594C68.5559 21.0232 68.7214 21.6957 68.7214 22.4767C68.7214 23.3199 68.5119 24.0725 68.0929 24.7345C67.6791 25.3915 67.0662 25.9113 66.2541 26.2941C65.442 26.6768 64.4411 26.8682 63.2514 26.8682H56.4624ZM59.822 24.1216H62.5609C63.4971 24.1216 64.1799 23.9431 64.6092 23.5862C65.0385 23.2242 65.2532 22.7431 65.2532 22.1431C65.2532 21.7034 65.1472 21.3155 64.9351 20.9793C64.723 20.6431 64.4204 20.3793 64.0273 20.1879C63.6393 19.9965 63.1764 19.9008 62.6385 19.9008H59.822V24.1216ZM59.822 17.6275H62.3126C62.7729 17.6275 63.1816 17.5473 63.5385 17.3869C63.9006 17.2214 64.1851 16.9886 64.392 16.6886C64.604 16.3886 64.7101 16.0291 64.7101 15.6102C64.7101 15.036 64.5058 14.5731 64.0971 14.2213C63.6937 13.8696 63.1195 13.6937 62.3747 13.6937H59.822V17.6275Z" fill="white"/>
<path d="M74.1232 26.8682V24.4475L79.7794 19.2103C80.2605 18.7447 80.6639 18.3257 80.9898 17.9533C81.3209 17.5809 81.5717 17.2162 81.7424 16.8593C81.9131 16.4972 81.9985 16.1067 81.9985 15.6877C81.9985 15.2222 81.8924 14.8213 81.6804 14.4851C81.4683 14.1437 81.1786 13.8825 80.8114 13.7015C80.4441 13.5153 80.0277 13.4222 79.5622 13.4222C79.076 13.4222 78.6518 13.5204 78.2897 13.717C77.9277 13.9136 77.6483 14.1955 77.4518 14.5627C77.2552 14.93 77.157 15.367 77.157 15.874H73.9681C73.9681 14.8343 74.2034 13.9317 74.6741 13.1661C75.1448 12.4006 75.8043 11.8083 76.6526 11.3893C77.5009 10.9704 78.4785 10.7609 79.5855 10.7609C80.7234 10.7609 81.714 10.9626 82.5571 11.3661C83.4054 11.7644 84.0649 12.3178 84.5356 13.0265C85.0063 13.7351 85.2417 14.5472 85.2417 15.4627C85.2417 16.0628 85.1227 16.655 84.8848 17.2395C84.652 17.824 84.2356 18.4732 83.6356 19.187C83.0356 19.8956 82.1899 20.7465 81.0984 21.7396L78.7785 24.013V24.1216H85.4511V26.8682H74.1232Z" fill="white"/>
<path d="M88.9745 27.07C88.4624 27.07 88.0228 26.8889 87.6555 26.5268C87.2934 26.1596 87.1124 25.7199 87.1124 25.2078C87.1124 24.7009 87.2934 24.2664 87.6555 23.9044C88.0228 23.5423 88.4624 23.3612 88.9745 23.3612C89.4711 23.3612 89.9056 23.5423 90.278 23.9044C90.6504 24.2664 90.8366 24.7009 90.8366 25.2078C90.8366 25.5492 90.7487 25.8622 90.5728 26.1467C90.4021 26.426 90.1771 26.651 89.8978 26.8217C89.6185 26.9872 89.3107 27.07 88.9745 27.07Z" fill="white"/>
<path d="M98.2355 27.2174C96.901 27.2122 95.7527 26.8837 94.7906 26.232C93.8337 25.5803 93.0966 24.6363 92.5793 23.4C92.0673 22.1638 91.8138 20.6767 91.819 18.9387C91.819 17.2059 92.075 15.7291 92.5871 14.5084C93.1044 13.2877 93.8415 12.3592 94.7984 11.723C95.7605 11.0816 96.9062 10.7609 98.2355 10.7609C99.5649 10.7609 100.708 11.0816 101.665 11.723C102.627 12.3644 103.367 13.2954 103.884 14.5162C104.401 15.7317 104.657 17.2059 104.652 18.9387C104.652 20.6818 104.393 22.1715 103.876 23.4078C103.364 24.644 102.63 25.588 101.673 26.2398C100.716 26.8915 99.5701 27.2174 98.2355 27.2174ZM98.2355 24.432C99.1459 24.432 99.8727 23.9742 100.416 23.0586C100.959 22.1431 101.228 20.7698 101.223 18.9387C101.223 17.7335 101.099 16.73 100.85 15.9283C100.607 15.1265 100.261 14.5239 99.8106 14.1205C99.3657 13.717 98.8407 13.5153 98.2355 13.5153C97.3303 13.5153 96.6062 13.9679 96.0631 14.8731C95.5199 15.7783 95.2458 17.1335 95.2406 18.9387C95.2406 20.1594 95.3622 21.1784 95.6053 21.9957C95.8536 22.8078 96.2027 23.4181 96.6527 23.8268C97.1027 24.2302 97.6303 24.432 98.2355 24.432Z" fill="white"/>
</svg>
